HIERARCHY
ROOT hip
{
	OFFSET 0.000000 0.000000 0.000000
	CHANNELS 6 Xposition Yposition Zposition Xrotation Zrotation Yrotation 
	JOINT abdomen
	{
		OFFSET 0.000000 3.422050 0.000000
		CHANNELS 3 Xrotation Zrotation Yrotation 
		JOINT chest
		{
			OFFSET 0.000000 8.486693 -0.684411
			CHANNELS 3 Xrotation Zrotation Yrotation 
			JOINT neck
			{
				OFFSET 0.000000 10.266162 -0.273764
				CHANNELS 3 Xrotation Zrotation Yrotation 
				JOINT head
				{
					OFFSET 0.000000 3.148285 0.000000
					CHANNELS 3 Xrotation Zrotation Yrotation 
					End Site
					{
						OFFSET 0.000000 3.148289 0.000000
					}
				}
			}
			JOINT lCollar
			{
				OFFSET 3.422053 6.707223 -0.821293
				CHANNELS 3 Yrotation Zrotation Xrotation 
				JOINT lShldr
				{
					OFFSET 3.285171 0.000000 0.000000
					CHANNELS 3 Zrotation Yrotation Xrotation 
					JOINT lForeArm
					{
						OFFSET 10.129278 0.000000 0.000000
						CHANNELS 3 Yrotation Zrotation Xrotation 
						JOINT lHand
						{
							OFFSET 8.486692 0.000000 0.000000
							CHANNELS 3 Zrotation Yrotation Xrotation 
							End Site
							{
								OFFSET 4.106464 0.000000 0.000000
							}
						}
					}
				}
			}
			JOINT rCollar
			{
				OFFSET -3.558935 6.707223 -0.821293
				CHANNELS 3 Yrotation Zrotation Xrotation 
				JOINT rShldr
				{
					OFFSET -3.148289 0.000000 0.000000
					CHANNELS 3 Zrotation Yrotation Xrotation 
					JOINT rForeArm
					{
						OFFSET -10.266159 0.000000 0.000000
						CHANNELS 3 Yrotation Zrotation Xrotation 
						JOINT rHand
						{
							OFFSET -8.349810 0.000000 0.000000
							CHANNELS 3 Zrotation Yrotation Xrotation 
							End Site
							{
								OFFSET -4.106464 0.000000 0.000000
							}
						}
					}
				}
			}
		}
	}
	JOINT lThigh
	{
		OFFSET 5.338403 -1.642589 1.368821
		CHANNELS 3 Xrotation Zrotation Yrotation 
		JOINT lShin
		{
			OFFSET -2.053232 -20.121670 0.000000
			CHANNELS 3 Xrotation Zrotation Yrotation 
			JOINT lFoot
			{
				OFFSET 0.000000 -19.300380 -1.231939
				CHANNELS 3 Xrotation Yrotation Zrotation 
				End Site
				{
					OFFSET 0.000000 -2.463878 4.653993
				}
			}
		}
	}
	JOINT rThigh
	{
		OFFSET -5.338403 -1.642589 1.368821
		CHANNELS 3 Xrotation Zrotation Yrotation 
		JOINT rShin
		{
			OFFSET 2.053232 -20.121670 0.000000
			CHANNELS 3 Xrotation Zrotation Yrotation 
			JOINT rFoot
			{
				OFFSET 0.000000 -19.300380 -1.231939
				CHANNELS 3 Xrotation Yrotation Zrotation 
				End Site
				{
					OFFSET 0.000000 -2.463878 4.653993
				}
			}
		}
	}
}
MOTION
Frames: 10
Frame Time: 0.049973
0.000000 43.528500 0.000000 0.000000 0.000000 0.000000 0.000000 0.000000 0.000000 0.000000 0.000000 0.000000 0.000000 0.000000 0.000000 0.000000 0.000000 0.000000 0.000000 0.000000 0.000000 0.000000 0.000000 0.000000 0.000000 0.000000 0.000000 0.000000 0.000000 0.000000 0.000000 0.000000 0.000000 0.000000 0.000000 0.000000 0.000000 0.000000 0.000000 0.000000 0.000000 0.000000 0.000000 0.000000 0.000000 0.000000 0.000000 0.000000 0.000000 0.000000 0.000000 0.000000 0.000000 0.000000 0.000000 0.000000 0.000000 0.000000 0.000000 0.000000 
0.000000 42.798584 -41.526691 0.000000 0.000000 0.000000 5.998535 0.000000 0.000000 7.999141 0.000000 0.000000 14.998176 0.000000 0.000000 0.000000 0.000000 0.000000 -26.002342 12.997977 -10.001873 27.998266 14.996323 -60.002064 -128.022781 4.995743 19.997782 19.997175 -3.003018 -23.000809 -0.000565 2.996469 9.998610 53.997227 10.999093 29.994949 44.997784 3.998946 -20.002344 -30.000906 -0.001250 -5.999732 -48.000050 26.998346 1.999440 100.996109 0.000001 -0.000001 9.998674 0.000000 0.000000 -2.001344 -6.002983 -0.001874 2.999106 0.000000 0.000000 31.998375 0.000000 0.000000 
0.000000 42.798584 -41.526691 0.000000 0.000000 0.000000 5.998536 0.000000 0.000000 7.999141 0.000000 0.000000 14.998235 -0.000029 -0.393264 0.000000 0.000000 0.000000 -26.002342 12.997977 -10.001873 27.998297 14.829859 -60.002125 -128.022781 4.995743 19.997782 20.205324 -3.002981 -23.000807 -0.000565 2.996469 9.998610 53.997227 10.999093 29.994949 44.997784 3.998946 -20.002344 -30.000906 -0.001250 -5.999732 -47.942703 27.350067 2.327755 100.996109 0.000001 -0.000001 9.998674 0.000000 0.000000 -2.001344 -6.002983 -0.001874 2.999106 0.000000 0.000000 31.998375 0.000000 0.000000 
0.000000 42.798584 -41.526691 0.000000 0.000000 0.000000 5.998535 0.000000 0.000000 7.999141 0.000000 0.000000 14.998288 -0.000058 -0.786671 0.000000 0.000000 0.000000 -26.002342 12.997977 -10.001874 27.998302 14.663368 -60.002159 -128.022781 4.995743 19.997782 20.413498 -3.002944 -23.000803 -0.000565 2.996469 9.998610 53.997227 10.999093 29.994949 44.997784 3.998946 -20.002344 -30.000906 -0.001250 -5.999732 -47.882870 27.701609 2.657634 100.996109 0.000001 -0.000001 9.998675 0.000000 0.000000 -2.001344 -6.002983 -0.001874 2.999106 0.000000 0.000000 31.998375 0.000000 0.000000 
0.000000 42.798584 -41.526691 0.000000 0.000000 0.000000 5.998536 0.000000 0.000000 7.999141 0.000000 0.000000 14.998339 -0.000086 -1.180214 0.000000 0.000000 0.000000 -26.002344 12.997977 -10.001872 27.998323 14.496866 -60.002201 -128.022781 4.995743 19.997782 20.621710 -3.002908 -23.000801 -0.000565 2.996470 9.998610 53.997227 10.999093 29.994949 44.997784 3.998946 -20.002344 -30.000906 -0.001250 -5.999732 -47.820518 28.052940 2.989107 100.996109 0.000001 -0.000001 9.998674 0.000000 0.000000 -2.001344 -6.002983 -0.001874 2.999106 0.000000 0.000000 31.998375 0.000000 0.000000 
0.000000 42.798584 -41.526691 0.000000 0.000000 0.000000 5.998536 0.000000 0.000000 7.999142 0.000000 0.000000 14.998397 -0.000114 -1.573882 0.000000 0.000000 0.000000 -26.002342 12.997977 -10.001873 27.998337 14.330347 -60.002235 -128.022797 4.995743 19.997782 20.829943 -3.002871 -23.000790 -0.000565 2.996469 9.998610 53.997227 10.999093 29.994949 44.997787 3.998946 -20.002344 -30.000906 -0.001250 -5.999733 -47.755638 28.404047 3.322199 100.996117 0.000001 -0.000001 9.998674 0.000000 0.000000 -2.001344 -6.002984 -0.001874 2.999106 0.000000 0.000000 31.998381 0.000000 0.000000 
0.000000 42.798584 -41.526691 0.000000 0.000000 0.000000 5.998536 0.000000 0.000000 7.999142 0.000000 0.000000 14.998452 -0.000141 -1.967667 0.000000 0.000000 0.000000 -26.002344 12.997978 -10.001874 27.998350 14.163815 -60.002277 -128.022797 4.995743 19.997782 21.038208 -3.002835 -23.000790 -0.000565 2.996469 9.998610 53.997227 10.999093 29.994949 44.997784 3.998946 -20.002344 -30.000910 -0.001250 -5.999733 -47.688202 28.754906 3.656940 100.996109 0.000001 -0.000001 9.998674 0.000000 0.000000 -2.001344 -6.002984 -0.001874 2.999106 0.000000 0.000000 31.998379 0.000000 0.000000 
0.000000 42.798584 -41.526691 0.000000 0.000000 0.000000 5.998535 0.000000 0.000000 7.999142 0.000000 0.000000 14.998507 -0.000168 -2.361559 0.000000 0.000000 0.000000 -26.002342 12.997977 -10.001874 27.998373 13.997274 -60.002323 -128.022797 4.995743 19.997782 21.246494 -3.002797 -23.000776 -0.000565 2.996469 9.998610 53.997231 10.999092 29.994949 44.997784 3.998948 -20.002346 -30.000906 -0.001250 -5.999732 -47.618176 29.105492 3.993365 100.996109 0.000001 -0.000001 9.998675 0.000000 0.000000 -2.001345 -6.002983 -0.001874 2.999107 0.000000 0.000000 31.998375 0.000000 0.000000 
0.000000 42.798584 -41.526691 0.000000 0.000000 0.000000 5.998535 0.000000 0.000000 7.999140 0.000000 0.000000 14.998563 -0.000195 -2.755549 0.000000 0.000000 0.000000 -26.002342 12.997977 -10.001872 27.998390 13.830714 -60.002357 -128.022781 4.995742 19.997780 21.454809 -3.002760 -23.000771 -0.000565 2.996469 9.998610 53.997223 10.999092 29.994949 44.997784 3.998946 -20.002344 -30.000906 -0.001250 -5.999732 -47.545521 29.455761 4.331495 100.996109 0.000001 -0.000001 9.998674 0.000000 0.000000 -2.001344 -6.002983 -0.001874 2.999106 0.000000 0.000000 31.998375 0.000000 0.000000 
0.000000 42.798584 -41.526691 0.000000 0.000000 0.000000 5.998535 0.000000 0.000000 7.999140 0.000000 0.000000 14.998619 -0.000221 -3.149627 0.000000 0.000000 0.000000 -26.002342 12.997977 -10.001872 27.998404 13.664147 -60.002415 -128.022781 4.995742 19.997780 21.663151 -3.002724 -23.000771 -0.000565 2.996469 9.998610 53.997223 10.999092 29.994949 44.997784 3.998946 -20.002344 -30.000906 -0.001250 -5.999732 -47.470242 29.805719 4.671366 100.996101 0.000001 -0.000001 9.998674 0.000000 0.000000 -2.001344 -6.002982 -0.001874 2.999106 0.000000 0.000000 31.998375 0.000000 0.000000 
